<svg xmlns="http://www.w3.org/2000/svg" xmlns:xlink="http://www.w3.org/1999/xlink" width="1080" zoomAndPan="magnify" viewBox="0 0 810 809.999993" height="1080" preserveAspectRatio="xMidYMid meet" version="1.2"><defs/><g id="bd5c7b7ebe"><path style=" stroke:none;fill-rule:nonzero;fill:#ffffff;fill-opacity:1;" d="M 143.777344 0 L 665.746094 0 C 705.605469 0 741.667969 16.132812 767.769531 42.230469 C 793.867188 68.332031 810 104.394531 810 143.777344 L 810 665.746094 C 810 705.605469 793.867188 741.667969 767.769531 767.769531 C 741.667969 793.867188 705.605469 810 665.746094 810 L 143.777344 810 C 104.394531 810 68.332031 793.867188 42.230469 767.769531 C 16.132812 741.667969 0 705.605469 0 665.746094 L 0 143.777344 C 0 104.394531 16.132812 68.332031 42.230469 42.230469 C 68.332031 16.132812 104.394531 0 143.777344 0 Z M 665.746094 42.230469 L 143.777344 42.230469 C 115.78125 42.230469 90.632812 53.621094 72.125 72.125 C 53.621094 90.632812 42.230469 115.78125 42.230469 143.777344 L 42.230469 665.746094 C 42.230469 693.742188 53.621094 719.367188 72.125 737.875 C 90.632812 755.90625 115.78125 767.769531 143.777344 767.769531 L 665.746094 767.769531 C 693.742188 767.769531 719.367188 755.90625 737.875 737.875 C 755.90625 719.367188 767.769531 693.742188 767.769531 665.746094 L 767.769531 143.777344 C 767.769531 115.78125 755.90625 90.632812 737.875 72.125 C 719.367188 53.621094 693.742188 42.230469 665.746094 42.230469 Z M 665.746094 42.230469 "/><path style=" stroke:none;fill-rule:nonzero;fill:#ffffff;fill-opacity:1;" d="M 148.050781 280.914062 L 226.34375 280.914062 C 235.359375 280.914062 243.425781 284.234375 249.121094 289.929688 C 255.289062 295.625 259.5625 303.691406 259.5625 313.179688 L 259.5625 676.1875 C 259.5625 685.203125 255.289062 693.742188 249.121094 699.4375 C 243.425781 705.132812 235.359375 708.453125 226.34375 708.453125 L 148.050781 708.453125 C 139.035156 708.453125 130.964844 705.132812 125.273438 699.4375 C 118.628906 693.742188 114.832031 685.203125 114.832031 676.1875 L 114.832031 313.179688 C 114.832031 303.691406 118.628906 295.625 125.273438 289.929688 C 130.964844 284.234375 139.035156 280.914062 148.050781 280.914062 Z M 217.328125 323.144531 L 157.066406 323.144531 L 157.066406 666.222656 L 217.328125 666.222656 Z M 217.328125 323.144531 "/><path style=" stroke:none;fill-rule:nonzero;fill:#ffffff;fill-opacity:1;" d="M 345.921875 279.964844 L 424.21875 279.964844 C 433.234375 279.964844 441.300781 283.761719 446.996094 288.980469 C 453.636719 295.148438 457.433594 303.214844 457.433594 312.230469 L 457.433594 315.078125 C 474.515625 303.691406 493.972656 295.148438 513.902344 290.402344 C 541.421875 283.761719 570.367188 283.285156 596.941406 289.457031 C 623.988281 296.097656 649.140625 310.332031 666.695312 332.636719 C 684.253906 353.988281 694.691406 382.933594 694.691406 419 L 694.691406 675.238281 C 694.691406 684.253906 690.894531 692.320312 684.726562 698.488281 C 679.035156 703.707031 670.964844 707.503906 661.949219 707.503906 L 583.179688 707.503906 C 574.640625 707.503906 566.574219 703.707031 560.402344 698.488281 C 554.234375 692.320312 550.4375 684.253906 550.4375 675.238281 L 550.4375 472.617188 C 550.4375 453.636719 539.527344 441.773438 525.765625 436.554688 C 519.597656 434.183594 512.476562 433.234375 505.835938 433.234375 C 498.71875 433.234375 491.597656 434.65625 484.957031 437.03125 C 469.296875 442.722656 457.433594 454.585938 457.433594 472.617188 L 457.433594 676.1875 C 457.433594 685.203125 453.636719 693.742188 446.996094 699.4375 C 441.300781 705.132812 433.234375 708.453125 424.21875 708.453125 L 345.921875 708.453125 C 336.90625 708.453125 328.839844 705.132812 323.144531 699.4375 C 316.976562 693.742188 312.707031 685.203125 312.707031 676.1875 L 312.707031 312.230469 C 312.707031 303.214844 316.976562 295.148438 323.144531 288.980469 C 328.839844 283.761719 336.90625 279.964844 345.921875 279.964844 Z M 415.203125 322.195312 L 354.9375 322.195312 L 354.9375 666.222656 L 415.203125 666.222656 L 415.203125 472.617188 C 415.203125 434.183594 439.402344 408.558594 470.71875 397.171875 C 481.632812 393.375 493.496094 391.476562 505.359375 391 C 517.222656 391 529.085938 392.898438 540.472656 397.171875 C 569.894531 408.085938 592.671875 432.757812 592.671875 472.617188 L 592.671875 665.273438 L 652.460938 665.273438 L 652.460938 419 C 652.460938 393.375 645.34375 373.445312 633.953125 359.210938 C 622.089844 344.5 605.484375 335.007812 586.976562 330.261719 C 567.046875 325.519531 545.21875 325.992188 524.339844 331.210938 C 495.871094 338.332031 470.246094 353.515625 453.636719 376.292969 C 449.84375 381.984375 443.671875 385.308594 436.082031 385.308594 C 424.691406 385.308594 415.203125 375.816406 415.203125 364.429688 Z M 415.203125 322.195312 "/><path style=" stroke:none;fill-rule:nonzero;fill:#ffffff;fill-opacity:1;" d="M 186.960938 101.070312 C 208.3125 101.070312 227.769531 110.085938 241.527344 123.847656 C 255.289062 137.609375 263.832031 157.066406 263.832031 177.945312 C 263.832031 199.296875 255.289062 218.277344 241.527344 232.511719 C 227.769531 246.273438 208.3125 254.816406 186.960938 254.816406 C 166.082031 254.816406 146.625 246.273438 132.863281 232.511719 C 119.105469 218.277344 110.5625 199.296875 110.5625 177.945312 C 110.5625 157.066406 119.105469 137.609375 132.863281 123.847656 C 146.625 110.085938 166.082031 101.070312 186.960938 101.070312 Z M 211.632812 153.742188 C 205.464844 147.574219 196.925781 143.777344 186.960938 143.777344 C 177.46875 143.777344 168.929688 147.574219 162.757812 153.742188 C 156.589844 159.914062 152.792969 168.453125 152.792969 177.945312 C 152.792969 187.433594 156.589844 196.449219 162.757812 202.617188 C 168.929688 208.789062 177.46875 212.582031 186.960938 212.582031 C 196.925781 212.582031 205.464844 208.789062 211.632812 202.617188 C 217.804688 196.449219 221.597656 187.433594 221.597656 177.945312 C 221.597656 168.453125 217.804688 159.914062 211.632812 153.742188 Z M 211.632812 153.742188 "/><g style="fill:#ffffff;fill-opacity:1;"><g transform="translate(287.579785, 30.555778)"><path style="stroke:none" d="M 2.8125 0 L 2.8125 -22.328125 L 7.546875 -22.328125 L 7.546875 0 Z M 2.8125 0 "/></g><g transform="translate(297.934364, 30.555778)"><path style="stroke:none" d="M 18.203125 0 L 13.546875 0 L 13.546875 -9.96875 C 13.546875 -11.207031 13.328125 -12.132812 12.890625 -12.75 C 12.453125 -13.363281 11.753906 -13.671875 10.796875 -13.671875 C 9.492188 -13.671875 8.550781 -13.234375 7.96875 -12.359375 C 7.394531 -11.492188 7.109375 -10.050781 7.109375 -8.03125 L 7.109375 0 L 2.4375 0 L 2.4375 -17.078125 L 6 -17.078125 L 6.625 -14.890625 L 6.890625 -14.890625 C 7.410156 -15.710938 8.125 -16.332031 9.03125 -16.75 C 9.945312 -17.175781 10.984375 -17.390625 12.140625 -17.390625 C 14.128906 -17.390625 15.632812 -16.851562 16.65625 -15.78125 C 17.6875 -14.707031 18.203125 -13.160156 18.203125 -11.140625 Z M 18.203125 0 "/></g><g transform="translate(318.490799, 30.555778)"><path style="stroke:none" d="M 14.359375 -5.078125 C 14.359375 -3.316406 13.75 -1.976562 12.53125 -1.0625 C 11.3125 -0.144531 9.492188 0.3125 7.078125 0.3125 C 5.828125 0.3125 4.765625 0.222656 3.890625 0.046875 C 3.015625 -0.117188 2.195312 -0.363281 1.4375 -0.6875 L 1.4375 -4.53125 C 2.300781 -4.125 3.273438 -3.78125 4.359375 -3.5 C 5.441406 -3.226562 6.394531 -3.09375 7.21875 -3.09375 C 8.914062 -3.09375 9.765625 -3.582031 9.765625 -4.5625 C 9.765625 -4.925781 9.648438 -5.222656 9.421875 -5.453125 C 9.203125 -5.679688 8.816406 -5.941406 8.265625 -6.234375 C 7.710938 -6.523438 6.976562 -6.863281 6.0625 -7.25 C 4.75 -7.800781 3.785156 -8.3125 3.171875 -8.78125 C 2.554688 -9.25 2.109375 -9.785156 1.828125 -10.390625 C 1.546875 -10.992188 1.40625 -11.738281 1.40625 -12.625 C 1.40625 -14.144531 1.992188 -15.316406 3.171875 -16.140625 C 4.347656 -16.972656 6.015625 -17.390625 8.171875 -17.390625 C 10.222656 -17.390625 12.222656 -16.941406 14.171875 -16.046875 L 12.765625 -12.6875 C 11.910156 -13.0625 11.109375 -13.363281 10.359375 -13.59375 C 9.617188 -13.820312 8.863281 -13.9375 8.09375 -13.9375 C 6.71875 -13.9375 6.03125 -13.566406 6.03125 -12.828125 C 6.03125 -12.410156 6.25 -12.046875 6.6875 -11.734375 C 7.132812 -11.429688 8.109375 -10.984375 9.609375 -10.390625 C 10.941406 -9.847656 11.914062 -9.34375 12.53125 -8.875 C 13.15625 -8.40625 13.613281 -7.863281 13.90625 -7.25 C 14.207031 -6.644531 14.359375 -5.921875 14.359375 -5.078125 Z M 14.359375 -5.078125 "/></g><g transform="translate(334.03794, 30.555778)"><path style="stroke:none" d="M 9.515625 -14.078125 C 8.523438 -14.078125 7.75 -13.765625 7.1875 -13.140625 C 6.632812 -12.515625 6.316406 -11.628906 6.234375 -10.484375 L 12.765625 -10.484375 C 12.742188 -11.628906 12.441406 -12.515625 11.859375 -13.140625 C 11.285156 -13.765625 10.503906 -14.078125 9.515625 -14.078125 Z M 10.171875 0.3125 C 7.421875 0.3125 5.269531 -0.445312 3.71875 -1.96875 C 2.175781 -3.488281 1.40625 -5.640625 1.40625 -8.421875 C 1.40625 -11.273438 2.117188 -13.484375 3.546875 -15.046875 C 4.984375 -16.609375 6.960938 -17.390625 9.484375 -17.390625 C 11.898438 -17.390625 13.78125 -16.703125 15.125 -15.328125 C 16.46875 -13.953125 17.140625 -12.054688 17.140625 -9.640625 L 17.140625 -7.375 L 6.125 -7.375 C 6.175781 -6.050781 6.566406 -5.015625 7.296875 -4.265625 C 8.035156 -3.523438 9.066406 -3.15625 10.390625 -3.15625 C 11.410156 -3.15625 12.378906 -3.257812 13.296875 -3.46875 C 14.210938 -3.6875 15.171875 -4.03125 16.171875 -4.5 L 16.171875 -0.90625 C 15.359375 -0.5 14.488281 -0.195312 13.5625 0 C 12.632812 0.207031 11.503906 0.3125 10.171875 0.3125 Z M 10.171875 0.3125 "/></g><g transform="translate(352.51735, 30.555778)"><path style="stroke:none" d="M 11.96875 -17.390625 C 12.601562 -17.390625 13.128906 -17.347656 13.546875 -17.265625 L 13.203125 -12.890625 C 12.816406 -12.992188 12.359375 -13.046875 11.828125 -13.046875 C 10.335938 -13.046875 9.175781 -12.660156 8.34375 -11.890625 C 7.519531 -11.128906 7.109375 -10.0625 7.109375 -8.6875 L 7.109375 0 L 2.4375 0 L 2.4375 -17.078125 L 5.96875 -17.078125 L 6.65625 -14.203125 L 6.890625 -14.203125 C 7.421875 -15.160156 8.132812 -15.929688 9.03125 -16.515625 C 9.9375 -17.097656 10.914062 -17.390625 11.96875 -17.390625 Z M 11.96875 -17.390625 "/></g><g transform="translate(366.720533, 30.555778)"><path style="stroke:none" d="M 2.25 -21.484375 C 2.25 -23.003906 3.09375 -23.765625 4.78125 -23.765625 C 6.46875 -23.765625 7.3125 -23.003906 7.3125 -21.484375 C 7.3125 -20.765625 7.097656 -20.203125 6.671875 -19.796875 C 6.253906 -19.398438 5.625 -19.203125 4.78125 -19.203125 C 3.09375 -19.203125 2.25 -19.960938 2.25 -21.484375 Z M 7.109375 0 L 2.4375 0 L 2.4375 -17.078125 L 7.109375 -17.078125 Z M 7.109375 0 "/></g><g transform="translate(376.265684, 30.555778)"><path style="stroke:none" d="M 11.96875 -17.390625 C 12.601562 -17.390625 13.128906 -17.347656 13.546875 -17.265625 L 13.203125 -12.890625 C 12.816406 -12.992188 12.359375 -13.046875 11.828125 -13.046875 C 10.335938 -13.046875 9.175781 -12.660156 8.34375 -11.890625 C 7.519531 -11.128906 7.109375 -10.0625 7.109375 -8.6875 L 7.109375 0 L 2.4375 0 L 2.4375 -17.078125 L 5.96875 -17.078125 L 6.65625 -14.203125 L 6.890625 -14.203125 C 7.421875 -15.160156 8.132812 -15.929688 9.03125 -16.515625 C 9.9375 -17.097656 10.914062 -17.390625 11.96875 -17.390625 Z M 11.96875 -17.390625 "/></g><g transform="translate(390.468867, 30.555778)"><path style="stroke:none" d=""/></g><g transform="translate(398.593699, 30.555778)"><path style="stroke:none" d="M 14.546875 0 L 13.921875 -2.1875 L 13.671875 -2.1875 C 13.171875 -1.394531 12.460938 -0.78125 11.546875 -0.34375 C 10.628906 0.09375 9.585938 0.3125 8.421875 0.3125 C 6.410156 0.3125 4.894531 -0.222656 3.875 -1.296875 C 2.863281 -2.378906 2.359375 -3.925781 2.359375 -5.9375 L 2.359375 -17.078125 L 7.015625 -17.078125 L 7.015625 -7.109375 C 7.015625 -5.867188 7.234375 -4.941406 7.671875 -4.328125 C 8.109375 -3.710938 8.804688 -3.40625 9.765625 -3.40625 C 11.066406 -3.40625 12.003906 -3.835938 12.578125 -4.703125 C 13.160156 -5.578125 13.453125 -7.023438 13.453125 -9.046875 L 13.453125 -17.078125 L 18.109375 -17.078125 L 18.109375 0 Z M 14.546875 0 "/></g><g transform="translate(419.150134, 30.555778)"><path style="stroke:none" d="M 17.734375 0 L 13.078125 0 L 13.078125 -9.96875 C 13.078125 -11.207031 12.867188 -12.132812 12.453125 -12.75 C 12.046875 -13.363281 11.398438 -13.671875 10.515625 -13.671875 C 9.316406 -13.671875 8.445312 -13.234375 7.90625 -12.359375 C 7.375 -11.484375 7.109375 -10.039062 7.109375 -8.03125 L 7.109375 0 L 2.4375 0 L 2.4375 -17.078125 L 6 -17.078125 L 6.625 -14.890625 L 6.890625 -14.890625 C 7.347656 -15.671875 8.007812 -16.28125 8.875 -16.71875 C 9.738281 -17.164062 10.734375 -17.390625 11.859375 -17.390625 C 14.410156 -17.390625 16.140625 -16.554688 17.046875 -14.890625 L 17.453125 -14.890625 C 17.910156 -15.679688 18.582031 -16.296875 19.46875 -16.734375 C 20.363281 -17.171875 21.375 -17.390625 22.5 -17.390625 C 24.4375 -17.390625 25.898438 -16.894531 26.890625 -15.90625 C 27.878906 -14.914062 28.375 -13.328125 28.375 -11.140625 L 28.375 0 L 23.703125 0 L 23.703125 -9.96875 C 23.703125 -11.207031 23.492188 -12.132812 23.078125 -12.75 C 22.671875 -13.363281 22.023438 -13.671875 21.140625 -13.671875 C 19.992188 -13.671875 19.140625 -13.257812 18.578125 -12.4375 C 18.015625 -11.625 17.734375 -10.332031 17.734375 -8.5625 Z M 17.734375 0 "/></g><g transform="translate(449.862609, 30.555778)"><path style="stroke:none" d=""/></g><g transform="translate(457.987441, 30.555778)"><path style="stroke:none" d="M 9.640625 -3.40625 C 10.453125 -3.40625 11.429688 -3.582031 12.578125 -3.9375 L 12.578125 -0.46875 C 11.410156 0.0507812 9.984375 0.3125 8.296875 0.3125 C 6.429688 0.3125 5.070312 -0.15625 4.21875 -1.09375 C 3.375 -2.039062 2.953125 -3.457031 2.953125 -5.34375 L 2.953125 -13.578125 L 0.71875 -13.578125 L 0.71875 -15.546875 L 3.28125 -17.109375 L 4.625 -20.71875 L 7.609375 -20.71875 L 7.609375 -17.078125 L 12.390625 -17.078125 L 12.390625 -13.578125 L 7.609375 -13.578125 L 7.609375 -5.34375 C 7.609375 -4.6875 7.789062 -4.195312 8.15625 -3.875 C 8.53125 -3.5625 9.023438 -3.40625 9.640625 -3.40625 Z M 9.640625 -3.40625 "/></g><g transform="translate(471.564462, 30.555778)"><path style="stroke:none" d="M 7.109375 0 L 2.4375 0 L 2.4375 -17.078125 L 7.109375 -17.078125 Z M 2.21875 -18.953125 L 2.21875 -19.375 C 3.96875 -21.40625 5.160156 -22.9375 5.796875 -23.96875 L 11.03125 -23.96875 L 11.03125 -23.640625 C 10.5 -23.109375 9.59375 -22.320312 8.3125 -21.28125 C 7.03125 -20.238281 6.03125 -19.460938 5.3125 -18.953125 Z M 2.21875 -18.953125 "/></g><g transform="translate(481.109612, 30.555778)"><path style="stroke:none" d="M 9.640625 -3.40625 C 10.453125 -3.40625 11.429688 -3.582031 12.578125 -3.9375 L 12.578125 -0.46875 C 11.410156 0.0507812 9.984375 0.3125 8.296875 0.3125 C 6.429688 0.3125 5.070312 -0.15625 4.21875 -1.09375 C 3.375 -2.039062 2.953125 -3.457031 2.953125 -5.34375 L 2.953125 -13.578125 L 0.71875 -13.578125 L 0.71875 -15.546875 L 3.28125 -17.109375 L 4.625 -20.71875 L 7.609375 -20.71875 L 7.609375 -17.078125 L 12.390625 -17.078125 L 12.390625 -13.578125 L 7.609375 -13.578125 L 7.609375 -5.34375 C 7.609375 -4.6875 7.789062 -4.195312 8.15625 -3.875 C 8.53125 -3.5625 9.023438 -3.40625 9.640625 -3.40625 Z M 9.640625 -3.40625 "/></g><g transform="translate(494.686634, 30.555778)"><path style="stroke:none" d="M 14.546875 0 L 13.921875 -2.1875 L 13.671875 -2.1875 C 13.171875 -1.394531 12.460938 -0.78125 11.546875 -0.34375 C 10.628906 0.09375 9.585938 0.3125 8.421875 0.3125 C 6.410156 0.3125 4.894531 -0.222656 3.875 -1.296875 C 2.863281 -2.378906 2.359375 -3.925781 2.359375 -5.9375 L 2.359375 -17.078125 L 7.015625 -17.078125 L 7.015625 -7.109375 C 7.015625 -5.867188 7.234375 -4.941406 7.671875 -4.328125 C 8.109375 -3.710938 8.804688 -3.40625 9.765625 -3.40625 C 11.066406 -3.40625 12.003906 -3.835938 12.578125 -4.703125 C 13.160156 -5.578125 13.453125 -7.023438 13.453125 -9.046875 L 13.453125 -17.078125 L 18.109375 -17.078125 L 18.109375 0 Z M 14.546875 0 "/></g><g transform="translate(515.243069, 30.555778)"><path style="stroke:none" d="M 7.109375 0 L 2.4375 0 L 2.4375 -23.765625 L 7.109375 -23.765625 Z M 7.109375 0 "/></g><g transform="translate(524.788219, 30.555778)"><path style="stroke:none" d="M 6.15625 -8.5625 C 6.15625 -6.875 6.429688 -5.597656 6.984375 -4.734375 C 7.546875 -3.867188 8.453125 -3.4375 9.703125 -3.4375 C 10.941406 -3.4375 11.832031 -3.863281 12.375 -4.71875 C 12.925781 -5.582031 13.203125 -6.863281 13.203125 -8.5625 C 13.203125 -10.257812 12.925781 -11.53125 12.375 -12.375 C 11.820312 -13.21875 10.921875 -13.640625 9.671875 -13.640625 C 8.429688 -13.640625 7.535156 -13.21875 6.984375 -12.375 C 6.429688 -11.539062 6.15625 -10.269531 6.15625 -8.5625 Z M 17.96875 -8.5625 C 17.96875 -5.789062 17.234375 -3.617188 15.765625 -2.046875 C 14.296875 -0.472656 12.253906 0.3125 9.640625 0.3125 C 7.992188 0.3125 6.546875 -0.046875 5.296875 -0.765625 C 4.046875 -1.484375 3.082031 -2.515625 2.40625 -3.859375 C 1.738281 -5.203125 1.40625 -6.769531 1.40625 -8.5625 C 1.40625 -11.351562 2.132812 -13.519531 3.59375 -15.0625 C 5.050781 -16.613281 7.097656 -17.390625 9.734375 -17.390625 C 11.367188 -17.390625 12.8125 -17.035156 14.0625 -16.328125 C 15.320312 -15.617188 16.285156 -14.59375 16.953125 -13.25 C 17.628906 -11.914062 17.96875 -10.351562 17.96875 -8.5625 Z M 17.96875 -8.5625 "/></g></g></g></svg>